<svg xmlns="http://www.w3.org/2000/svg" width="365" height="275"><style>.a{stop-color:#fff;stop-opacity:0;}.b{stop-color:#fff;stop-opacity:0.3;}.c{stop-color:#FFF;}.d{stop-color:#000;}.e{stop-color:#000;stop-opacity:0;}.f{stop-color:#000;stop-opacity:0.4;}.g{fill:#87cdde;font-family:DejaVu Sans Mono;font-size:6px;stroke-width:1px;}.h{fill:#4d4d4d;stroke-width:0.5;}.i{fill:#1793d1;stroke-width:0.5;}</style><defs><linearGradient gradientUnits="userSpaceOnUse" y2="129.3" x2="112.5" y1="6.1" x1="112.5" gradientTransform="translate(287,-83)"><stop offset="0" class="a"/><stop offset="1" class="b"/><midPointStop offset="0" class="c"/><midPointStop offset="0.5" class="c"/><midPointStop offset="1" class="d"/></linearGradient><linearGradient><stop offset="0" class="e"/><stop offset="1" class="f"/></linearGradient><linearGradient><stop offset="0" stop-color="#00bdec"/><stop offset="1" stop-color="#40bfde"/></linearGradient><linearGradient xlink:href="#linearGradient4346" x1="400.6" y1="634.2" x2="616.5" y2="667" gradientUnits="userSpaceOnUse"/><linearGradient><stop offset="0" stop-color="#6e6e6e"/><stop offset="1" stop-color="#4d4d4d"/></linearGradient><linearGradient xlink:href="#linearGradient5323" x1="291.8" y1="238.1" x2="650.8" y2="349" gradientUnits="userSpaceOnUse"/><linearGradient xlink:href="#linearGradient3388" gradientUnits="userSpaceOnUse" gradientTransform="matrix(0.6551957,0,0,0.6551957,-113.28394,148.38658)" x1="490.7" y1="237.7" x2="490.7" y2="184"/><linearGradient xlink:href="#path1082_2_" gradientUnits="userSpaceOnUse" gradientTransform="matrix(-0.6710118,0,0,0.6709741,706.10281,-117.5032)" x1="541.3" y1="104.5" x2="606.9" y2="303.1"/><linearGradient xlink:href="#path1082_2_" gradientUnits="userSpaceOnUse" gradientTransform="matrix(-0.6710118,0,0,0.6709741,901.93156,-57.609066)" x1="541.3" y1="104.5" x2="606.9" y2="303.1"/><linearGradient y2="667" x2="616.5" y1="634.2" x1="400.6" gradientUnits="userSpaceOnUse" xlink:href="#linearGradient4346"/><linearGradient gradientUnits="userSpaceOnUse" y2="667" x2="616.5" y1="634.2" x1="400.6" xlink:href="#linearGradient4346"/><linearGradient><stop offset="0" stop-color="#26a7e8"/><stop offset="1" stop-color="#3ab0ea"/></linearGradient><linearGradient><stop offset="0" class="e"/><stop offset="1" class="f"/></linearGradient><linearGradient y2="303.1" x2="606.9" y1="104.5" x1="541.3" gradientTransform="matrix(-0.3937741,0,0,0.393752,357.51969,122.00151)" gradientUnits="userSpaceOnUse" xlink:href="#path1082_2_"/><linearGradient gradientTransform="translate(287,-83)" x1="112.5" y1="6.1" x2="112.5" y2="129.3" gradientUnits="userSpaceOnUse"><stop offset="0" class="a"/><stop offset="1" class="b"/><midPointStop offset="0" class="c"/><midPointStop offset="0.5" class="c"/><midPointStop offset="1" class="d"/></linearGradient><linearGradient xlink:href="#linearGradient5323" gradientUnits="userSpaceOnUse" x1="291.8" y1="238.1" x2="650.8" y2="349"/><linearGradient xlink:href="#linearGradient4346" gradientUnits="userSpaceOnUse" x1="400.6" y1="634.2" x2="616.5" y2="667"/><linearGradient xlink:href="#linearGradient5323" gradientUnits="userSpaceOnUse" x1="291.8" y1="238.1" x2="650.8" y2="349"/><linearGradient xlink:href="#linearGradient4346" gradientUnits="userSpaceOnUse" x1="400.6" y1="634.2" x2="616.5" y2="667"/></defs><g transform="translate(-195.82871 -53.894133)"><path d="M381.1 59.9C372.3 81.4 367 95.5 357.2 116.3 363.2 122.6 370.6 130 382.5 138.3 369.7 133.1 360.9 127.8 354.4 122.3 341.9 148.4 322.3 185.4 282.6 256.8 313.8 238.8 338 227.7 360.6 223.4 359.6 219.3 359.1 214.7 359.1 210.1L359.1 209.1C359.6 189.1 370 173.7 382.3 174.7 394.7 175.8 404.2 192.9 403.7 212.9 403.7 216.6 403.2 220.2 402.5 223.6 424.8 227.9 448.7 239 479.5 256.8 473.4 245.6 468 235.6 462.8 226 454.7 219.6 446.2 211.4 428.8 202.5 440.8 205.6 449.3 209.2 456 213.2 403.4 115.2 399.1 102.2 381.1 59.9z" style="fill:#1793d1;stroke-linejoin:round"/><text x="475.5" y="242" class="g"><tspan x="475.5" y="242">  TM</tspan></text><g transform="matrix(0.4787947 0 0 0.4787947 65.3323 122.93044)" fill="#4d4d4d"><path d="M340 309.1C325.5 309.1 313.5 312 308.8 313.7L304.1 339.5C304.1 339.6 327.9 333.1 338.3 333.5 355.7 334.1 357.3 340.1 357 348.3 357.3 348.7 352.5 340.9 337.5 340.7 318.6 340.3 291.8 347.4 291.8 376 291.3 408.1 315.9 417.6 332.6 417.8 347.6 417.5 354.7 412.1 358.5 409.2 363.6 403.9 369.4 398.6 374.9 392.2 369.7 401.7 365.2 408.2 360.4 413.3L360.4 417.5 383.3 413.7 383.4 351.6C383.2 342.8 388.5 309.2 340 309.1zM336.7 363.2C346.2 363.3 357 368 357 379.2 357.1 389.4 344.2 394.9 335.9 394.8 327.5 394.7 316.4 388.2 316.4 378.3 316.5 369.4 326.8 362.9 336.7 363.2z" class="h"/><path d="M398.5 314.8L398.3 417.7 425 412.5 425 354.2C425 345.5 437.4 335.4 453 335.6 456.3 329.6 462.5 314.3 464 310.9 429.2 310.8 428.8 320.8 422.7 325.8 422.7 316.3 422.7 310.7 422.7 310.7L398.5 314.8z" class="h"/><path d="M548.3 328.3C548 328.2 534.4 312.4 507 312.3 481.3 311.8 452.6 321.8 452.1 364.8 452.3 402.6 479.8 417.4 507.1 417.7 536.5 418 548.1 399.4 548.8 398.9 545.3 395.9 532.2 382.9 532.2 382.9 532.2 382.9 524 394.5 508.2 394.7 492.3 394.8 478.5 382.4 478.3 365.1 478.1 347.7 491 338.3 508.3 337.6 523.3 337.6 531.9 347.3 531.9 347.3L548.3 328.3z" class="h"/><path d="M581.8 278.8L556.7 284.8 556.9 418.7 581.6 414.2 581.9 351.2C582 344.6 591.5 334.4 607.3 334.8 622.5 334.9 625.9 344.9 625.9 346.1L626.3 419.1 650.7 414.8 650.8 337.4C651 330 634.5 314.2 608 314.1 595.5 314.1 588.5 317 584.9 319.1 578.9 323.8 571.9 328.3 565.1 334 571.4 325.9 576.7 320.3 581.9 316.2L581.8 278.8z" class="h"/></g><g transform="matrix(0.7088464 0 0.010030984 0.7088464 96.75298 -188.32526)" class="i"><path d="M400.7 629.8L408.4 627.9 407.4 719.1 399.6 720.4 400.7 629.8z" class="i"/><path d="M421.1 657L427.9 654 427 719.4 420.5 720.8 421.1 657zM419.8 633.4L425.3 629 429.7 634 424.3 638.6 419.8 633.4z" class="i"/><path d="M440.4 655.8L448.1 654.3 448 667.9C448 668.5 452.4 652.7 472.6 653 492.3 653.1 495.3 668.4 495.2 671.8L494.7 719.9 488 721.3 488.6 673.8C488.7 672.4 485.8 660.7 471.9 660.7 457.9 660.6 448.2 670.8 448.1 677.2L447.6 719.1 439.8 721.1 440.4 655.8z" class="i"/><path d="M561.5 720.2L553.9 721.8 554 708.1C554 707.5 549.6 723.4 529.3 723 509.6 722.9 506.6 707.7 506.8 704.3L507.2 656.2 515.4 654.5 514.8 702C514.8 703.3 516.2 715.3 530.1 715.4 544 715.4 553.9 707 554.1 694.3L554.6 656.8 562.2 654.9 561.5 720.2z" class="i"/><path d="M577.5 655.3L572 659.5 592.2 686.4 569.8 717.5 575.5 721.8 596.5 692.9 617.4 722.4 622.7 718.2 600.3 686.6 618.9 661 613.4 656.3 596.5 680 577.5 655.3z" class="i"/></g><text x="550.8" y="319.3" class="g"><tspan x="550.8" y="319.3">  TM</tspan></text></g></svg>